<svg width="543.994" height="90.967" viewBox="0 0 543.994 90.967" xmlns="http://www.w3.org/2000/svg"><g id="svgGroup" stroke-linecap="round" fill-rule="evenodd" font-size="9pt" stroke="currentColor" stroke-width="0.25mm" fill="currentColor" style="stroke:currentColor;stroke-width:0.25mm;fill:currentColor"><path d="M 491.211 66.064 L 491.211 69.287 L 467.725 69.287 L 467.725 66.064 A 1240.968 1240.968 0 0 1 469.995 65.869 A 10.459 10.459 0 0 0 471.012 65.735 Q 471.521 65.64 471.963 65.498 A 6.422 6.422 0 0 0 472.021 65.479 A 4.025 4.025 0 0 0 473.099 64.956 A 3.285 3.285 0 0 0 474.048 63.94 Q 474.597 63.026 474.689 61.653 A 8.534 8.534 0 0 0 474.707 61.084 L 474.707 36.23 A 17.88 17.88 0 0 0 474.469 33.215 Q 474.189 31.581 473.579 30.276 A 8.5 8.5 0 0 0 472.388 28.394 A 7.932 7.932 0 0 0 470.094 26.484 A 7.224 7.224 0 0 0 466.602 25.635 A 13.869 13.869 0 0 0 463.042 26.082 A 12.648 12.648 0 0 0 462.109 26.367 A 14.163 14.163 0 0 0 458.252 28.418 A 13.311 13.311 0 0 0 456.698 29.791 A 11.045 11.045 0 0 0 455.884 30.737 Q 454.953 31.955 454.465 32.776 A 9.998 9.998 0 0 0 454.443 32.812 L 454.443 60.596 Q 454.443 62.305 455.029 63.403 Q 455.615 64.502 457.031 65.088 A 19.925 19.925 0 0 0 457.972 65.43 Q 458.405 65.575 458.799 65.681 A 11.357 11.357 0 0 0 459.058 65.747 A 9.053 9.053 0 0 0 459.745 65.884 Q 460.464 66 461.426 66.064 L 461.426 69.287 L 438.428 69.287 L 438.428 66.064 A 367.413 367.413 0 0 0 440.337 65.894 A 331.993 331.993 0 0 0 440.601 65.869 A 9.301 9.301 0 0 0 441.817 65.678 A 7.669 7.669 0 0 0 442.529 65.479 A 4.025 4.025 0 0 0 443.607 64.956 A 3.285 3.285 0 0 0 444.556 63.94 Q 445.105 63.026 445.196 61.653 A 8.534 8.534 0 0 0 445.215 61.084 L 445.215 36.23 A 17.88 17.88 0 0 0 444.977 33.215 Q 444.697 31.581 444.087 30.276 A 8.5 8.5 0 0 0 442.896 28.394 A 7.932 7.932 0 0 0 440.602 26.484 A 7.224 7.224 0 0 0 437.109 25.635 Q 434.717 25.635 432.617 26.392 Q 430.518 27.148 428.76 28.467 A 11.797 11.797 0 0 0 426.716 30.43 A 10.822 10.822 0 0 0 426.367 30.884 A 633.268 633.268 0 0 0 425.909 31.514 Q 425.469 32.121 425.158 32.554 A 137.285 137.285 0 0 0 424.902 32.91 L 424.902 60.498 A 6.676 6.676 0 0 0 425.013 61.747 Q 425.157 62.502 425.488 63.11 A 4.045 4.045 0 0 0 425.586 63.281 A 4.098 4.098 0 0 0 427.062 64.703 A 5.305 5.305 0 0 0 427.637 64.99 Q 428.662 65.479 429.736 65.723 A 14.353 14.353 0 0 0 430.984 65.946 A 18.87 18.87 0 0 0 432.129 66.064 L 432.129 69.287 L 408.74 69.287 L 408.74 66.064 A 435.487 435.487 0 0 1 410.762 65.894 A 478.019 478.019 0 0 1 411.06 65.869 Q 412.13 65.782 412.946 65.538 A 6.261 6.261 0 0 0 413.135 65.479 A 4.025 4.025 0 0 0 414.212 64.956 A 3.285 3.285 0 0 0 415.161 63.94 Q 415.71 63.026 415.802 61.653 A 8.534 8.534 0 0 0 415.82 61.084 L 415.82 31.152 A 5.93 5.93 0 0 0 415.571 29.409 A 5.258 5.258 0 0 0 415.112 28.345 A 6.363 6.363 0 0 0 413.406 26.417 A 7.483 7.483 0 0 0 413.135 26.221 A 6.79 6.79 0 0 0 412.168 25.72 Q 411.566 25.463 410.84 25.269 Q 409.473 24.902 408.008 24.805 L 408.008 21.631 L 424.121 20.557 L 424.805 21.24 L 424.805 28.125 L 425.146 28.125 A 107.107 107.107 0 0 1 426.138 27.148 Q 427.026 26.282 428.125 25.244 A 33.65 33.65 0 0 1 429.591 23.935 Q 430.533 23.143 431.396 22.559 A 12.661 12.661 0 0 1 433.186 21.546 Q 434.097 21.119 435.167 20.765 A 22.176 22.176 0 0 1 435.669 20.605 A 18.153 18.153 0 0 1 439.703 19.876 A 21.552 21.552 0 0 1 441.211 19.824 A 14.625 14.625 0 0 1 445.443 20.414 A 12.24 12.24 0 0 1 449.268 22.339 A 15.245 15.245 0 0 1 452.593 25.689 A 13.528 13.528 0 0 1 454.102 28.418 A 1236.596 1236.596 0 0 1 455.56 27.002 Q 456.225 26.358 456.816 25.787 A 683.293 683.293 0 0 1 457.202 25.415 A 18.364 18.364 0 0 1 458.329 24.421 Q 459.369 23.572 460.742 22.656 A 14.767 14.767 0 0 1 463.248 21.29 A 18.853 18.853 0 0 1 465.112 20.605 Q 467.627 19.824 470.703 19.824 A 15.036 15.036 0 0 1 474.924 20.387 A 11.439 11.439 0 0 1 480.371 23.828 A 12.349 12.349 0 0 1 482.744 27.971 Q 483.405 29.836 483.699 32.144 A 31.597 31.597 0 0 1 483.936 36.133 L 483.936 60.596 Q 483.936 62.305 484.521 63.403 Q 485.107 64.502 486.523 65.088 A 13.477 13.477 0 0 0 488.332 65.657 A 12.125 12.125 0 0 0 488.745 65.747 A 17.054 17.054 0 0 0 489.911 65.936 A 23.079 23.079 0 0 0 491.211 66.064 Z M 187.109 48.877 L 190.625 48.877 L 189.307 69.287 L 131.787 69.287 L 131.787 65.82 Q 133.252 65.723 135.693 65.405 Q 137.88 65.121 138.696 64.817 A 2.332 2.332 0 0 0 138.867 64.746 A 6.046 6.046 0 0 0 139.867 64.163 Q 140.429 63.753 140.789 63.25 A 3.397 3.397 0 0 0 141.04 62.842 A 4.969 4.969 0 0 0 141.468 61.649 Q 141.593 61.101 141.633 60.462 A 9.774 9.774 0 0 0 141.65 59.863 L 141.65 10.059 A 8.239 8.239 0 0 0 141.52 8.561 A 6.316 6.316 0 0 0 141.113 7.202 Q 140.66 6.152 139.373 5.431 A 6.969 6.969 0 0 0 138.867 5.176 Q 137.549 4.541 135.327 4.053 A 44.848 44.848 0 0 0 134.027 3.786 Q 132.693 3.534 131.787 3.467 L 131.787 0 L 185.4 0 L 185.4 16.699 L 181.738 16.699 Q 180.762 12.988 177.515 8.813 A 21.423 21.423 0 0 0 175.911 6.963 Q 174.028 5.044 172.258 4.461 A 5.099 5.099 0 0 0 171.338 4.248 A 33.186 33.186 0 0 0 170.12 4.115 Q 169.443 4.053 168.677 4.006 A 64.144 64.144 0 0 0 167.725 3.955 A 84.399 84.399 0 0 0 165.775 3.888 Q 164.45 3.857 162.939 3.857 L 152.051 3.857 L 152.051 31.396 L 159.863 31.396 A 32.388 32.388 0 0 0 161.617 31.352 Q 164.056 31.219 165.356 30.688 A 7.155 7.155 0 0 0 167.701 29.113 A 9.005 9.005 0 0 0 168.408 28.32 Q 169.263 27.193 169.917 25.463 A 18.877 18.877 0 0 0 170.239 24.536 A 26.494 26.494 0 0 0 170.921 21.992 A 20.755 20.755 0 0 0 171.24 20.068 L 174.902 20.068 L 174.902 47.168 L 171.24 47.168 A 19.84 19.84 0 0 0 170.776 44.29 A 25.149 25.149 0 0 0 170.19 42.212 A 23.574 23.574 0 0 0 169.704 40.856 Q 169.192 39.564 168.654 38.766 A 5.423 5.423 0 0 0 168.408 38.428 A 8.556 8.556 0 0 0 167.06 37.058 A 6.25 6.25 0 0 0 164.966 35.937 A 11.396 11.396 0 0 0 163.493 35.604 Q 161.946 35.352 159.863 35.352 L 152.051 35.352 L 152.051 56.152 Q 152.051 59.277 152.49 61.084 A 5.585 5.585 0 0 0 152.984 62.405 A 4.144 4.144 0 0 0 154.199 63.818 A 5.486 5.486 0 0 0 155.488 64.504 Q 156.106 64.74 156.851 64.886 A 11.443 11.443 0 0 0 157.666 65.015 Q 159.863 65.283 163.916 65.283 L 168.164 65.283 Q 170.131 65.283 171.636 65.174 A 27.453 27.453 0 0 0 172.607 65.088 A 25.343 25.343 0 0 0 175.459 64.616 A 29.11 29.11 0 0 0 176.44 64.38 Q 178.418 63.867 179.248 62.988 A 18.559 18.559 0 0 0 180.782 61.141 Q 182.223 59.18 183.749 56.287 A 61.059 61.059 0 0 0 183.96 55.884 Q 186.426 51.123 187.109 48.877 Z M 70.557 0 L 70.557 3.467 Q 69.287 3.516 67.48 4.028 A 15.509 15.509 0 0 0 66.215 4.444 Q 65.234 4.816 64.502 5.273 Q 62.842 6.299 61.841 7.91 A 26.017 26.017 0 0 0 60.908 9.55 Q 60.382 10.551 59.863 11.719 A 593.254 593.254 0 0 0 58.023 16.142 Q 55.03 23.41 50.285 35.32 A 3701.784 3701.784 0 0 0 50.049 35.913 A 4504.493 4504.493 0 0 0 40.015 61.342 A 5060.145 5060.145 0 0 0 36.572 70.166 L 32.52 70.166 Q 25.488 51.27 18.945 33.74 Q 12.402 16.211 10.059 10.059 A 9.412 9.412 0 0 0 8.919 7.936 A 8.563 8.563 0 0 0 8.496 7.397 A 9.527 9.527 0 0 0 7.371 6.289 Q 6.802 5.81 6.109 5.354 A 16.061 16.061 0 0 0 5.908 5.225 A 10.159 10.159 0 0 0 3.278 4.061 A 11.484 11.484 0 0 0 2.979 3.979 A 19.462 19.462 0 0 0 1.428 3.644 A 14.537 14.537 0 0 0 0 3.467 L 0 0 L 28.662 0 L 28.662 3.467 A 55.93 55.93 0 0 0 26.077 3.661 Q 24.057 3.864 22.485 4.199 A 7.474 7.474 0 0 0 21.568 4.452 Q 19.971 5.014 19.971 6.104 Q 19.971 6.641 20.166 7.373 A 34.919 34.919 0 0 0 20.261 7.721 Q 20.398 8.215 20.508 8.545 A 2815.465 2815.465 0 0 1 21.552 11.314 Q 23.14 15.536 25.74 22.472 A 19681.996 19681.996 0 0 1 26.367 24.146 Q 29.47 32.426 34.576 46.073 A 119816.097 119816.097 0 0 1 37.891 54.932 Q 40.442 48.721 43.524 40.965 A 2042.437 2042.437 0 0 0 46.436 33.594 Q 50.402 23.497 52.232 18.595 A 201.807 201.807 0 0 0 52.93 16.699 A 106.918 106.918 0 0 0 53.611 14.767 Q 54.429 12.367 54.713 11.056 A 9.145 9.145 0 0 0 54.81 10.547 Q 55.072 8.876 55.078 7.812 A 8.779 8.779 0 0 0 55.078 7.764 A 2.2 2.2 0 0 0 54.339 6.104 A 3.2 3.2 0 0 0 54.077 5.884 A 6.748 6.748 0 0 0 53.115 5.284 Q 52.376 4.9 51.416 4.59 A 22.608 22.608 0 0 0 48.145 3.857 Q 46.484 3.613 44.775 3.467 L 44.775 0 L 70.557 0 Z M 125.195 66.064 L 125.195 69.287 L 101.611 69.287 L 101.611 66.064 A 153.847 153.847 0 0 1 102.789 65.967 A 200.713 200.713 0 0 1 104.077 65.869 A 13.144 13.144 0 0 0 105.001 65.771 Q 105.743 65.664 106.299 65.479 A 4.025 4.025 0 0 0 107.376 64.956 A 3.285 3.285 0 0 0 108.325 63.94 Q 108.874 63.026 108.966 61.653 A 8.534 8.534 0 0 0 108.984 61.084 L 108.984 36.328 A 17.453 17.453 0 0 0 108.73 33.25 Q 108.426 31.555 107.758 30.214 A 8.505 8.505 0 0 0 106.567 28.418 A 8.415 8.415 0 0 0 104.296 26.54 A 7.335 7.335 0 0 0 100.684 25.635 A 14.469 14.469 0 0 0 97.765 25.919 A 12.12 12.12 0 0 0 95.947 26.44 A 18.008 18.008 0 0 0 93.452 27.591 A 15.043 15.043 0 0 0 92.139 28.418 Q 90.527 29.541 89.575 30.835 Q 88.623 32.129 88.184 32.91 L 88.184 60.596 Q 88.184 62.256 88.867 63.33 Q 89.551 64.404 90.918 64.99 Q 91.943 65.479 93.14 65.723 A 19.988 19.988 0 0 0 95.605 66.064 L 95.605 69.287 L 72.021 69.287 L 72.021 66.064 A 435.487 435.487 0 0 1 74.043 65.894 A 478.019 478.019 0 0 1 74.341 65.869 Q 75.411 65.782 76.227 65.538 A 6.261 6.261 0 0 0 76.416 65.479 A 4.025 4.025 0 0 0 77.493 64.956 A 3.285 3.285 0 0 0 78.442 63.94 Q 78.991 63.026 79.083 61.653 A 8.534 8.534 0 0 0 79.102 61.084 L 79.102 31.348 A 6.774 6.774 0 0 0 78.687 28.963 A 6.394 6.394 0 0 0 78.394 28.296 Q 77.686 26.904 76.416 26.025 A 6.016 6.016 0 0 0 75.194 25.441 A 7.815 7.815 0 0 0 74.219 25.171 A 18.181 18.181 0 0 0 72.556 24.902 A 21.895 21.895 0 0 0 71.484 24.805 L 71.484 21.631 L 87.5 20.557 L 88.184 21.24 L 88.184 28.027 L 88.428 28.027 A 80.946 80.946 0 0 1 89.389 27.083 Q 89.824 26.663 90.316 26.197 A 166.647 166.647 0 0 1 91.357 25.22 Q 93.115 23.584 94.678 22.559 A 15.341 15.341 0 0 1 96.858 21.394 A 20.547 20.547 0 0 1 98.975 20.605 A 16.643 16.643 0 0 1 101.977 19.974 A 21.93 21.93 0 0 1 104.59 19.824 A 17.6 17.6 0 0 1 108.573 20.246 Q 112.569 21.175 114.868 24.146 A 15.107 15.107 0 0 1 117.478 29.543 Q 118.052 31.681 118.178 34.203 A 28.987 28.987 0 0 1 118.213 35.645 L 118.213 60.693 A 8.164 8.164 0 0 0 118.282 61.79 Q 118.36 62.36 118.524 62.833 A 3.877 3.877 0 0 0 118.799 63.452 A 3.315 3.315 0 0 0 119.75 64.508 Q 120.144 64.798 120.653 65.025 A 6.107 6.107 0 0 0 120.801 65.088 A 18.05 18.05 0 0 0 121.635 65.413 Q 122.036 65.557 122.391 65.659 A 8.336 8.336 0 0 0 122.827 65.771 A 8.697 8.697 0 0 0 123.426 65.884 Q 124.155 65.997 125.195 66.064 Z M 348.926 66.064 L 348.926 69.287 L 325.342 69.287 L 325.342 66.064 A 153.847 153.847 0 0 1 326.52 65.967 A 200.713 200.713 0 0 1 327.808 65.869 A 13.144 13.144 0 0 0 328.731 65.771 Q 329.473 65.664 330.029 65.479 A 4.025 4.025 0 0 0 331.107 64.956 A 3.285 3.285 0 0 0 332.056 63.94 Q 332.605 63.026 332.696 61.653 A 8.534 8.534 0 0 0 332.715 61.084 L 332.715 36.328 A 17.453 17.453 0 0 0 332.461 33.25 Q 332.157 31.555 331.489 30.214 A 8.505 8.505 0 0 0 330.298 28.418 A 8.415 8.415 0 0 0 328.027 26.54 A 7.335 7.335 0 0 0 324.414 25.635 A 14.469 14.469 0 0 0 321.496 25.919 A 12.12 12.12 0 0 0 319.678 26.44 A 18.008 18.008 0 0 0 317.183 27.591 A 15.043 15.043 0 0 0 315.869 28.418 Q 314.258 29.541 313.306 30.835 Q 312.354 32.129 311.914 32.91 L 311.914 60.596 Q 311.914 62.256 312.598 63.33 Q 313.281 64.404 314.648 64.99 Q 315.674 65.479 316.87 65.723 A 19.988 19.988 0 0 0 319.336 66.064 L 319.336 69.287 L 295.752 69.287 L 295.752 66.064 A 435.487 435.487 0 0 1 297.773 65.894 A 478.019 478.019 0 0 1 298.071 65.869 Q 299.141 65.782 299.958 65.538 A 6.261 6.261 0 0 0 300.146 65.479 A 4.025 4.025 0 0 0 301.224 64.956 A 3.285 3.285 0 0 0 302.173 63.94 Q 302.722 63.026 302.814 61.653 A 8.534 8.534 0 0 0 302.832 61.084 L 302.832 31.348 A 6.774 6.774 0 0 0 302.417 28.963 A 6.394 6.394 0 0 0 302.124 28.296 Q 301.416 26.904 300.146 26.025 A 6.016 6.016 0 0 0 298.924 25.441 A 7.815 7.815 0 0 0 297.949 25.171 A 18.181 18.181 0 0 0 296.286 24.902 A 21.895 21.895 0 0 0 295.215 24.805 L 295.215 21.631 L 311.23 20.557 L 311.914 21.24 L 311.914 28.027 L 312.158 28.027 A 80.946 80.946 0 0 1 313.12 27.083 Q 313.554 26.663 314.046 26.197 A 166.647 166.647 0 0 1 315.088 25.22 Q 316.846 23.584 318.408 22.559 A 15.341 15.341 0 0 1 320.589 21.394 A 20.547 20.547 0 0 1 322.705 20.605 A 16.643 16.643 0 0 1 325.707 19.974 A 21.93 21.93 0 0 1 328.32 19.824 A 17.6 17.6 0 0 1 332.303 20.246 Q 336.299 21.175 338.599 24.146 A 15.107 15.107 0 0 1 341.208 29.543 Q 341.783 31.681 341.908 34.203 A 28.987 28.987 0 0 1 341.943 35.645 L 341.943 60.693 A 8.164 8.164 0 0 0 342.013 61.79 Q 342.09 62.36 342.254 62.833 A 3.877 3.877 0 0 0 342.529 63.452 A 3.315 3.315 0 0 0 343.48 64.508 Q 343.875 64.798 344.384 65.025 A 6.107 6.107 0 0 0 344.531 65.088 A 18.05 18.05 0 0 0 345.366 65.413 Q 345.767 65.557 346.121 65.659 A 8.336 8.336 0 0 0 346.558 65.771 A 8.697 8.697 0 0 0 347.156 65.884 Q 347.885 65.997 348.926 66.064 Z M 492.383 24.365 L 492.383 21.143 L 514.355 21.143 L 514.355 24.561 A 10.941 10.941 0 0 0 513.174 24.669 Q 512.122 24.82 510.84 25.171 Q 509.18 25.625 508.863 26.192 A 0.553 0.553 0 0 0 508.789 26.465 A 1.247 1.247 0 0 0 508.803 26.636 Q 508.842 26.915 508.994 27.395 A 11.146 11.146 0 0 0 509.009 27.441 A 20.948 20.948 0 0 0 509.38 28.494 A 24.108 24.108 0 0 0 509.521 28.857 A 252.336 252.336 0 0 0 510.571 31.541 Q 511.78 34.585 513.508 38.764 A 1068.724 1068.724 0 0 0 515.186 42.798 Q 518.102 49.77 520.016 54.61 A 296.23 296.23 0 0 1 521.094 57.373 A 4525.115 4525.115 0 0 1 525.07 47.95 A 5009.087 5009.087 0 0 1 525.659 46.558 Q 527.287 42.714 529.181 37.912 A 579.264 579.264 0 0 0 530.957 33.35 A 85.397 85.397 0 0 1 531.146 32.841 Q 531.36 32.272 531.652 31.514 A 309.443 309.443 0 0 1 531.934 30.786 A 11.905 11.905 0 0 0 532.295 29.716 Q 532.444 29.187 532.512 28.716 A 5.183 5.183 0 0 0 532.568 27.979 A 1.638 1.638 0 0 0 532.223 27.003 Q 531.692 26.276 530.347 25.61 A 15.648 15.648 0 0 0 528.312 24.768 A 11.415 11.415 0 0 0 526.123 24.268 L 526.123 21.143 L 543.994 21.143 L 543.994 24.17 Q 542.529 24.414 540.137 25.854 A 8.806 8.806 0 0 0 536.572 29.932 A 1550.791 1550.791 0 0 0 531.085 42.81 A 1142.898 1142.898 0 0 0 526.245 54.492 A 1175.127 1175.127 0 0 1 524.123 59.668 Q 521.215 66.708 519.47 70.609 A 162.554 162.554 0 0 1 519.385 70.801 Q 516.449 77.325 514.114 81.113 A 41.075 41.075 0 0 1 513.892 81.47 Q 512.044 84.4 510.268 86.374 A 21.058 21.058 0 0 1 509.18 87.5 A 21.261 21.261 0 0 1 507.75 88.701 Q 507.042 89.242 506.38 89.632 A 8.775 8.775 0 0 1 505.103 90.259 Q 503.271 90.967 501.318 90.967 Q 498.458 90.967 496.521 89.948 A 6.781 6.781 0 0 1 495.337 89.16 A 7.059 7.059 0 0 1 494.105 87.862 A 4.787 4.787 0 0 1 493.164 85.01 A 7.252 7.252 0 0 1 493.369 83.24 A 5.25 5.25 0 0 1 494.507 81.03 A 4.5 4.5 0 0 1 495.988 79.889 A 4.337 4.337 0 0 1 497.852 79.492 A 6.976 6.976 0 0 1 499.134 79.604 A 5.002 5.002 0 0 1 500.537 80.078 A 7.553 7.553 0 0 1 502.539 81.592 A 8.756 8.756 0 0 1 503.102 82.217 Q 503.387 82.563 503.686 82.984 A 19.062 19.062 0 0 1 504.102 83.594 Q 504.932 84.863 505.42 85.693 A 7.074 7.074 0 0 0 506.784 84.693 Q 508.113 83.486 509.675 81.245 A 47.913 47.913 0 0 0 511.255 78.809 A 78.935 78.935 0 0 0 513.494 74.905 Q 514.509 73.002 515.26 71.292 A 35.953 35.953 0 0 0 516.162 69.043 A 2889.124 2889.124 0 0 0 512.006 58.73 Q 509.761 53.191 507.764 48.34 A 2842.085 2842.085 0 0 0 501.932 34.286 A 3154.808 3154.808 0 0 0 499.902 29.443 Q 498.975 27.197 496.777 25.952 A 14.089 14.089 0 0 0 494.237 24.814 A 11.663 11.663 0 0 0 492.383 24.365 Z M 234.961 56.006 L 238.086 58.057 A 25.536 25.536 0 0 1 231.342 65.959 A 24.728 24.728 0 0 1 229.59 67.187 A 21.915 21.915 0 0 1 223.933 69.804 A 18.575 18.575 0 0 1 218.701 70.557 A 25.287 25.287 0 0 1 211.64 69.622 A 18.854 18.854 0 0 1 202.344 63.623 A 23.664 23.664 0 0 1 197.487 54.023 Q 196.569 50.461 196.452 46.256 A 44.628 44.628 0 0 1 196.436 45.02 A 28.735 28.735 0 0 1 197.324 37.791 A 25.959 25.959 0 0 1 198.022 35.522 Q 199.609 31.104 202.637 27.49 A 21.303 21.303 0 0 1 209.061 22.309 A 24.782 24.782 0 0 1 209.863 21.899 A 21.195 21.195 0 0 1 218.976 19.778 A 24.555 24.555 0 0 1 219.336 19.775 Q 225.69 19.775 229.92 22.509 A 14.602 14.602 0 0 1 230.859 23.169 A 10.817 10.817 0 0 1 235.233 30.996 A 14.323 14.323 0 0 1 235.303 32.422 A 8.645 8.645 0 0 1 234.942 34.958 A 7.498 7.498 0 0 1 234.131 36.743 A 3.832 3.832 0 0 1 231.522 38.506 A 6.254 6.254 0 0 1 230.273 38.623 Q 228.118 38.623 226.687 37.803 A 4.847 4.847 0 0 1 225.806 37.158 A 5.648 5.648 0 0 1 224.87 36.061 A 3.962 3.962 0 0 1 224.219 33.887 A 17.96 17.96 0 0 1 224.606 30.236 A 20.634 20.634 0 0 1 224.805 29.37 Q 225.391 27.051 225.488 25.977 A 4.321 4.321 0 0 0 222.876 23.95 A 12.612 12.612 0 0 0 220.125 23.47 A 14.888 14.888 0 0 0 219.141 23.438 A 10.356 10.356 0 0 0 214.673 24.438 Q 212.549 25.439 210.547 28.125 A 14.437 14.437 0 0 0 209.192 30.391 Q 208.624 31.554 208.151 32.953 A 29.783 29.783 0 0 0 207.617 34.717 Q 206.657 38.265 206.518 42.992 A 55.611 55.611 0 0 0 206.494 44.629 Q 206.494 53.711 210.522 59.448 Q 214.551 65.186 221.094 65.186 A 16.154 16.154 0 0 0 224.784 64.785 A 11.821 11.821 0 0 0 229.028 62.891 A 17.323 17.323 0 0 0 231.738 60.443 Q 232.896 59.168 233.985 57.549 A 33.307 33.307 0 0 0 234.961 56.006 Z M 287.158 54.712 A 31.816 31.816 0 0 0 288.77 44.727 A 33.006 33.006 0 0 0 288.191 38.399 A 22.932 22.932 0 0 0 282.202 26.587 A 21.568 21.568 0 0 0 273.96 21.174 A 24.547 24.547 0 0 0 265.527 19.775 A 29.826 29.826 0 0 0 263.407 19.849 A 21.765 21.765 0 0 0 248.315 26.953 A 24.089 24.089 0 0 0 242.832 36.923 A 31.648 31.648 0 0 0 241.748 45.41 A 33.142 33.142 0 0 0 241.97 49.303 A 26.269 26.269 0 0 0 243.628 55.981 Q 245.508 60.693 248.682 63.965 A 22.018 22.018 0 0 0 256.055 69.019 Q 260.205 70.752 264.795 70.752 A 29.297 29.297 0 0 0 268.139 70.566 A 23.515 23.515 0 0 0 274.756 68.848 A 20.458 20.458 0 0 0 276.91 67.77 A 21.891 21.891 0 0 0 282.568 63.037 A 21.47 21.47 0 0 0 284.913 59.761 A 26.084 26.084 0 0 0 287.158 54.712 Z M 400.146 54.712 A 31.816 31.816 0 0 0 401.758 44.727 A 33.006 33.006 0 0 0 401.179 38.399 A 22.932 22.932 0 0 0 395.19 26.587 A 21.568 21.568 0 0 0 386.949 21.174 A 24.547 24.547 0 0 0 378.516 19.775 A 29.826 29.826 0 0 0 376.396 19.849 A 21.765 21.765 0 0 0 361.304 26.953 A 24.089 24.089 0 0 0 355.82 36.923 A 31.648 31.648 0 0 0 354.736 45.41 A 33.142 33.142 0 0 0 354.958 49.303 A 26.269 26.269 0 0 0 356.616 55.981 Q 358.496 60.693 361.67 63.965 A 22.018 22.018 0 0 0 369.043 69.019 Q 373.193 70.752 377.783 70.752 A 29.297 29.297 0 0 0 381.127 70.566 A 23.515 23.515 0 0 0 387.744 68.848 A 20.458 20.458 0 0 0 389.899 67.77 A 21.891 21.891 0 0 0 395.557 63.037 A 21.47 21.47 0 0 0 397.901 59.761 A 26.084 26.084 0 0 0 400.146 54.712 Z M 278.662 44.824 A 41.128 41.128 0 0 0 278.347 39.839 A 49.592 49.592 0 0 0 277.93 37.085 A 30.718 30.718 0 0 0 277.165 33.811 Q 276.568 31.791 275.732 30.176 Q 274.17 27.148 271.631 25.317 A 9.584 9.584 0 0 0 267.505 23.648 A 12.869 12.869 0 0 0 265.43 23.486 A 12.715 12.715 0 0 0 262.248 23.867 A 9.957 9.957 0 0 0 259.009 25.342 A 13.137 13.137 0 0 0 255.491 29.03 A 16.201 16.201 0 0 0 254.688 30.42 A 20.918 20.918 0 0 0 253.036 34.687 A 26.007 26.007 0 0 0 252.49 37.207 A 45.942 45.942 0 0 0 251.882 43.122 A 40.895 40.895 0 0 0 251.855 44.58 A 51.155 51.155 0 0 0 252.095 49.629 A 41.078 41.078 0 0 0 252.612 53.247 A 27.338 27.338 0 0 0 253.789 57.563 A 22.34 22.34 0 0 0 255.029 60.352 A 15.426 15.426 0 0 0 257.001 63.255 A 12.49 12.49 0 0 0 259.204 65.259 A 9.473 9.473 0 0 0 262.917 66.811 A 13.105 13.105 0 0 0 265.43 67.041 A 10.314 10.314 0 0 0 273.608 63.215 A 15.631 15.631 0 0 0 275.098 61.133 A 21.783 21.783 0 0 0 277.389 55.651 Q 278.105 53.058 278.418 49.956 A 51.143 51.143 0 0 0 278.662 44.824 Z M 391.65 44.824 A 41.128 41.128 0 0 0 391.335 39.839 A 49.592 49.592 0 0 0 390.918 37.085 A 30.718 30.718 0 0 0 390.153 33.811 Q 389.556 31.791 388.721 30.176 Q 387.158 27.148 384.619 25.317 A 9.584 9.584 0 0 0 380.493 23.648 A 12.869 12.869 0 0 0 378.418 23.486 A 12.715 12.715 0 0 0 375.236 23.867 A 9.957 9.957 0 0 0 371.997 25.342 A 13.137 13.137 0 0 0 368.479 29.03 A 16.201 16.201 0 0 0 367.676 30.42 A 20.918 20.918 0 0 0 366.025 34.687 A 26.007 26.007 0 0 0 365.479 37.207 A 45.942 45.942 0 0 0 364.87 43.122 A 40.895 40.895 0 0 0 364.844 44.58 A 51.155 51.155 0 0 0 365.083 49.629 A 41.078 41.078 0 0 0 365.601 53.247 A 27.338 27.338 0 0 0 366.778 57.563 A 22.34 22.34 0 0 0 368.018 60.352 A 15.426 15.426 0 0 0 369.99 63.255 A 12.49 12.49 0 0 0 372.192 65.259 A 9.473 9.473 0 0 0 375.905 66.811 A 13.105 13.105 0 0 0 378.418 67.041 A 10.314 10.314 0 0 0 386.597 63.215 A 15.631 15.631 0 0 0 388.086 61.133 A 21.783 21.783 0 0 0 390.377 55.651 Q 391.093 53.058 391.407 49.956 A 51.143 51.143 0 0 0 391.65 44.824 Z" vector-effect="non-scaling-stroke"/></g></svg>